<svg width="38" height="38" viewBox="0 0 38 38" fill="none" xmlns="http://www.w3.org/2000/svg">
<path d="M35.736 13.0778C37.9185 10.8953 36.9233 8.34602 35.736 7.10632L30.4978 1.86817C28.2978 -0.314398 25.766 0.680852 24.5263 1.86817L21.558 4.85392H17.0358C13.7183 4.85392 11.7976 6.59997 10.8198 8.60793L3.06734 16.3604V23.3446L1.82764 24.5668C-0.354925 26.7669 0.640324 29.2986 1.82764 30.5383L7.0658 35.7765C8.00866 36.7194 9.02138 37.0686 9.9817 37.0686C11.2214 37.0686 12.3563 36.4575 13.0373 35.7765L17.7516 31.0447H24.02C26.9883 31.0447 28.4899 29.1939 29.0311 27.378C31.0042 26.8542 32.0867 25.3526 32.5232 23.8859C35.2296 23.1875 36.2423 20.6208 36.2423 18.8223V13.5842H35.2122L35.736 13.0778ZM32.7502 18.8223C32.7502 19.6081 32.4185 20.5684 31.0042 20.5684H29.2581V22.3144C29.2581 23.1002 28.9264 24.0605 27.5121 24.0605H25.766V25.8065C25.766 26.5923 25.4343 27.5526 24.02 27.5526H16.3199L10.5928 33.2797C10.0515 33.786 9.73726 33.4892 9.54519 33.2971L4.32449 28.0939C3.81814 27.5526 4.11497 27.2383 4.30703 27.0462L6.55944 24.7764V17.7922L10.0515 14.3001V17.0763C10.0515 19.189 11.4484 22.3144 15.2897 22.3144C19.131 22.3144 20.5279 19.189 20.5279 17.0763H32.7502V18.8223ZM33.2566 10.5984L30.2883 13.5842H17.0358V17.0763C17.0358 17.862 16.704 18.8223 15.2897 18.8223C13.8754 18.8223 13.5437 17.862 13.5437 17.0763V11.8381C13.5437 11.0349 13.8405 8.34602 17.0358 8.34602H22.9898L26.9708 4.36502C27.5121 3.85867 27.8264 4.1555 28.0184 4.34756L33.2391 9.5508C33.7455 10.0921 33.4487 10.4064 33.2566 10.5984Z" fill="white"/>
</svg>
