<svg width="65" height="52" viewBox="0 0 65 52" fill="none" xmlns="http://www.w3.org/2000/svg">
<path d="M64.8995 2.135C64.8685 1.60492 64.644 1.10466 64.2685 0.729202C63.893 0.35374 63.3926 0.129217 62.8625 0.0982615C48.8419 -0.714269 37.5842 3.54881 32.7463 11.5333C29.55 16.812 29.5554 23.2229 32.703 29.3385C30.9114 31.471 29.6021 33.9656 28.8647 36.6513L24.4575 32.2284C26.5758 27.8056 26.4945 23.1958 24.1866 19.3661C20.611 13.4644 12.3574 10.3009 2.11012 10.9022C1.57997 10.9332 1.07965 11.1577 0.704138 11.5331C0.328629 11.9086 0.104078 12.4089 0.0731187 12.939C-0.530938 23.185 2.63562 31.4376 8.53804 35.0127C10.4858 36.2026 12.724 36.8323 15.0066 36.8328C17.2221 36.8055 19.4031 36.2807 21.3885 35.2971L28.1604 42.0682V49.8333C28.1604 50.4079 28.3887 50.959 28.7951 51.3654C29.2015 51.7717 29.7527 52 30.3274 52C30.9021 52 31.4533 51.7717 31.8597 51.3654C32.2661 50.959 32.4944 50.4079 32.4944 49.8333V41.8461C32.4848 38.3991 33.658 35.053 35.8181 32.3666C38.6053 33.823 41.6964 34.6024 44.841 34.6416C47.8813 34.6515 50.8651 33.821 53.4631 32.242C61.4485 27.4101 65.723 16.1539 64.8995 2.135ZM10.7728 31.3076C6.61752 28.7914 4.2663 22.8356 4.32318 15.1653C11.9944 15.1003 17.951 17.4593 20.4675 21.6141C21.7812 23.7808 21.9952 26.3078 21.1338 28.9106L14.5217 22.2993C14.112 21.9101 13.5665 21.6963 13.0014 21.7036C12.4363 21.7108 11.8964 21.9385 11.4968 22.338C11.0972 22.7376 10.8695 23.2774 10.8623 23.8424C10.8551 24.4074 11.0689 24.9529 11.4581 25.3625L18.0702 31.9738C15.4671 32.8351 12.9425 32.6212 10.7728 31.3076ZM51.2175 28.5395C47.5877 30.7361 43.3214 30.904 38.9874 29.0812L53.5308 14.5369C53.92 14.1273 54.1338 13.5818 54.1266 13.0168C54.1193 12.4518 53.8916 11.912 53.492 11.5124C53.0924 11.1129 52.5525 10.8852 51.9875 10.878C51.4224 10.8707 50.8769 11.0845 50.4671 11.4737L35.921 25.999C34.0899 21.6655 34.2551 17.397 36.4628 13.7704C40.2388 7.54104 49.194 4.06883 60.6603 4.33696C60.9203 15.7991 57.4531 24.764 51.2175 28.5395Z" fill="white"/>
</svg>
