<svg width="36" height="34" viewBox="0 0 36 34" fill="none" xmlns="http://www.w3.org/2000/svg">
<path d="M34.592 19.2698C34.7491 21.9762 33.5094 24.5778 31.2919 26.1668L32.6364 28.7684C33.038 29.5541 33.0904 30.4795 32.7412 31.3001C32.4094 32.1208 31.7285 32.7668 30.8903 33.0462L29.511 33.4827C28.9366 33.6762 28.3165 33.6878 27.7353 33.516C27.1541 33.3441 26.6401 32.9971 26.2633 32.5224L22.5617 28.1573C21.0077 27.8953 19.541 27.2318 18.3013 26.2366C17.4283 26.4985 16.5553 26.6382 15.6822 26.6382C14.1457 26.6382 12.6092 26.1668 11.3171 25.2588C10.3917 25.5382 9.44882 25.6604 8.4885 25.6429C7.10911 25.6604 5.74719 25.381 4.47257 24.8572C3.24569 24.3098 2.19736 23.4286 1.44716 22.3141C0.696953 21.1996 0.275083 19.8967 0.229668 18.554C0.0899839 17.2968 0.29951 16.0222 0.840786 14.8698C0.334431 13.5603 0.28205 12.1285 0.718563 10.8015C1.3646 9.14274 2.58684 7.76336 4.1059 6.89033C5.11861 3.93951 7.96468 1.96647 11.0901 2.17599C13.8838 -0.443087 18.1616 -0.722455 21.2696 1.52995C22.0029 1.33789 22.7712 1.23312 23.5395 1.23312C25.9141 1.18074 28.1665 2.22837 29.6506 4.09665C33.2126 5.02206 35.7618 8.19987 35.9015 11.9015C35.9888 13.8396 35.465 15.7428 34.3999 17.3666C34.5221 17.9952 34.592 18.6238 34.592 19.2698ZM25.8617 16.8079C26.857 16.9301 27.6427 17.6809 27.6427 18.6762C27.6427 19.1393 27.4587 19.5834 27.1313 19.9108C26.8038 20.2383 26.3597 20.4222 25.8966 20.4222H24.7966C24.2379 21.9937 23.2601 23.3731 21.968 24.4207C22.4045 24.5778 22.8585 24.6651 23.3125 24.7874C32.2697 24.6651 31.2221 19.2 31.2221 19.1127C31.1758 17.9133 30.6549 16.7815 29.7741 15.9661C28.8932 15.1508 27.7246 14.7188 26.5252 14.765C26.0621 14.765 25.618 14.5811 25.2906 14.2536C24.9631 13.9262 24.7792 13.4821 24.7792 13.019C24.7792 12.5559 24.9631 12.1118 25.2906 11.7843C25.618 11.4569 26.0621 11.2729 26.5252 11.2729C28.6729 11.3253 30.7332 12.1285 32.3396 13.5428C32.4269 13.0364 32.4793 12.5126 32.4793 11.9888C32.3745 9.8237 31.3967 7.93796 27.4681 7.57129C25.2855 2.40298 19.7855 5.2665 19.7855 6.87287C19.7331 7.27447 20.1521 8.13003 20.222 8.18241C20.685 8.18241 21.1292 8.36637 21.4566 8.69382C21.7841 9.02127 21.968 9.46538 21.968 9.92846C21.968 10.8888 21.1823 11.6745 20.222 11.6745C19.2966 11.6396 18.4235 11.2904 17.7251 10.6967C16.887 11.238 15.9267 11.5698 14.9314 11.6745C13.9362 11.7618 13.1155 11.0634 13.0632 10.1031C13.031 9.87499 13.0458 9.64274 13.1066 9.42058C13.1675 9.19842 13.2731 8.99104 13.417 8.81118C13.5609 8.63131 13.74 8.48276 13.9434 8.37463C14.1468 8.26651 14.3701 8.20109 14.5997 8.18241C14.879 8.14749 16.241 7.93796 16.241 6.83795C16.241 5.68556 16.6775 4.58554 17.4283 3.71252C15.8219 3.27601 14.0933 3.8522 12.3473 5.96493C9.13453 5.45857 7.825 5.89508 6.86467 9.29989C5.20592 10.1205 4.33289 10.6967 3.94876 12.4428C5.8345 12.0586 7.77261 12.2158 9.57105 12.8793C10.4441 13.211 10.933 14.1888 10.6012 15.1317C10.2695 16.0396 9.25676 16.4936 8.34881 16.1619C7.07419 15.6031 5.64243 15.5682 4.33289 16.0571C3.77415 16.5285 3.77415 17.5063 3.77415 18.2746C3.77415 19.5667 4.42019 20.7715 5.52021 21.4699C6.44561 21.9413 7.47578 22.1858 8.50596 22.1683C8.24405 21.7143 8.01706 21.2429 7.825 20.754C7.68754 20.3054 7.72941 19.821 7.9418 19.4026C8.15419 18.9842 8.52055 18.6645 8.96382 18.5107C9.40709 18.357 9.89273 18.3811 10.3186 18.578C10.7445 18.7749 11.0773 19.1293 11.2473 19.5667C11.9457 21.5572 13.7267 22.9191 15.8219 23.1461C18.214 23.0239 20.3442 21.6096 21.3918 19.427C21.7934 17.0174 23.7315 16.8079 25.8617 16.8079ZM29.3538 29.8509L28.2713 27.5811L27.0316 27.8604L28.7776 30.043L29.3538 29.8509ZM21.2347 14.8174C21.2499 14.3714 21.0936 13.9364 20.7981 13.602C20.5026 13.2675 20.0903 13.0589 19.6458 13.019C18.4061 12.9491 17.2013 13.3682 16.2759 14.1888C15.2806 15.2015 14.7568 16.5984 14.8092 18.0127C14.8092 18.4758 14.9932 18.9199 15.3206 19.2473C15.6481 19.5748 16.0922 19.7587 16.5553 19.7587C17.5505 19.7587 18.3013 18.973 18.3013 18.0127C18.3013 17.5413 18.4235 17.0698 18.7029 16.6857C18.9124 16.5111 19.1743 16.4238 19.4537 16.4238C20.414 16.4762 21.2347 15.7603 21.2347 14.8174Z" fill="white"/>
</svg>
