<svg width="54" height="31" viewBox="0 0 54 31" fill="none" xmlns="http://www.w3.org/2000/svg">
<path d="M15.3175 29.4881V27.2106C15.3175 24.1905 16.5173 21.2941 18.6528 19.1586C20.7883 17.023 23.6847 15.8233 26.7048 15.8233M26.7048 15.8233C29.7249 15.8233 32.6213 17.023 34.7569 19.1586C36.8924 21.2941 38.0921 24.1905 38.0921 27.2106V29.4881M26.7048 15.8233C28.5169 15.8233 30.2547 15.1035 31.536 13.8221C32.8174 12.5408 33.5372 10.803 33.5372 8.99092C33.5372 7.17886 32.8174 5.44102 31.536 4.1597C30.2547 2.87838 28.5169 2.15854 26.7048 2.15854C24.8928 2.15854 23.1549 2.87838 21.8736 4.1597C20.5923 5.44102 19.8724 7.17886 19.8724 8.99092C19.8724 10.803 20.5923 12.5408 21.8736 13.8221C23.1549 15.1035 24.8928 15.8233 26.7048 15.8233ZM1.65277 29.4881V27.2106C1.65277 25.3985 2.37261 23.6607 3.65393 22.3794C4.93525 21.0981 6.67309 20.3782 8.48515 20.3782M8.48515 20.3782C9.69319 20.3782 10.8518 19.8983 11.706 19.0441C12.5602 18.1899 13.0401 17.0313 13.0401 15.8233C13.0401 14.6153 12.5602 13.4567 11.706 12.6025C10.8518 11.7483 9.69319 11.2684 8.48515 11.2684C7.27711 11.2684 6.11855 11.7483 5.26434 12.6025C4.41012 13.4567 3.93023 14.6153 3.93023 15.8233C3.93023 17.0313 4.41012 18.1899 5.26434 19.0441C6.11855 19.8983 7.27711 20.3782 8.48515 20.3782ZM51.7569 29.4881V27.2106C51.7569 25.3985 51.037 23.6607 49.7557 22.3794C48.4744 21.0981 46.7366 20.3782 44.9245 20.3782M44.9245 20.3782C46.1325 20.3782 47.2911 19.8983 48.1453 19.0441C48.9995 18.1899 49.4794 17.0313 49.4794 15.8233C49.4794 14.6153 48.9995 13.4567 48.1453 12.6025C47.2911 11.7483 46.1325 11.2684 44.9245 11.2684C43.7165 11.2684 42.5579 11.7483 41.7037 12.6025C40.8495 13.4567 40.3696 14.6153 40.3696 15.8233C40.3696 17.0313 40.8495 18.1899 41.7037 19.0441C42.5579 19.8983 43.7165 20.3782 44.9245 20.3782Z" stroke="white" stroke-width="3" stroke-linecap="round" stroke-linejoin="round"/>
</svg>
